<?xml version="1.0" standalone="no"?>
<!DOCTYPE svg PUBLIC "-//W3C//DTD SVG 20010904//EN"
 "http://www.w3.org/TR/2001/REC-SVG-20010904/DTD/svg10.dtd">
<svg version="1.0" xmlns="http://www.w3.org/2000/svg"
 width="640.000000pt" height="640.000000pt" viewBox="0 0 640.000000 640.000000"
 preserveAspectRatio="xMidYMid meet">
<metadata>
Created by potrace 1.14, written by Peter Selinger 2001-2017
</metadata>
<g transform="translate(0.000000,640.000000) scale(0.100000,-0.100000)"
fill="#000000" stroke="none">
<path d="M1756 4985 c4 -8 1 -15 -4 -15 -7 0 -8 -10 -2 -30 5 -17 5 -30 0 -30
-5 0 -5 -13 0 -30 5 -16 5 -30 1 -30 -5 0 -5 -18 -1 -40 4 -22 4 -40 -1 -40
-4 0 -4 -13 1 -30 5 -17 5 -30 0 -30 -5 0 -5 -13 0 -30 5 -17 5 -30 0 -30 -5
0 -5 -13 0 -30 5 -17 5 -30 0 -30 -5 0 -5 -13 0 -30 5 -17 5 -30 0 -30 -5 0
-5 -13 0 -30 5 -17 5 -30 0 -30 -5 0 -5 -13 0 -30 5 -17 5 -30 0 -30 -5 0 -5
-13 0 -30 5 -19 5 -30 -1 -30 -6 0 -5 -8 1 -20 6 -12 7 -20 1 -20 -6 0 -6 -11
-1 -30 5 -17 5 -30 0 -30 -5 0 -5 -13 0 -30 5 -16 6 -30 2 -30 -4 0 -5 -49 -2
-110 3 -61 2 -110 -2 -110 -4 0 -3 -13 2 -30 5 -17 5 -30 0 -30 -5 0 -5 -13 0
-30 5 -17 5 -30 0 -30 -5 0 -5 -13 0 -30 6 -20 5 -30 -2 -30 -6 0 -5 -7 3 -17
10 -11 10 -14 2 -9 -7 4 -13 2 -13 -3 0 -6 4 -11 9 -11 5 0 8 -11 6 -25 -1
-14 2 -25 7 -25 5 0 4 -10 -3 -21 -8 -16 -8 -20 1 -14 9 6 9 2 1 -14 -9 -16
-9 -21 0 -21 9 0 9 -3 0 -14 -8 -10 -9 -16 -1 -21 7 -4 7 -12 0 -26 -8 -14 -7
-19 1 -19 8 0 8 -5 -2 -16 -10 -13 -10 -17 0 -24 9 -5 10 -10 2 -14 -8 -5 -8
-13 0 -28 8 -16 8 -19 -1 -13 -9 6 -9 2 -1 -14 9 -16 9 -21 0 -21 -8 0 -8 -4
1 -15 10 -12 10 -15 0 -15 -10 0 -10 -3 0 -15 10 -12 10 -15 0 -15 -10 0 -10
-3 0 -15 10 -12 10 -15 0 -15 -10 0 -10 -3 0 -15 10 -12 10 -15 0 -15 -9 0
-10 -3 -1 -13 8 -10 7 -17 -1 -25 -9 -9 -9 -12 1 -12 11 0 11 -3 1 -15 -8 -10
-9 -15 -1 -15 7 0 8 -8 1 -24 -5 -15 -5 -27 3 -35 8 -8 8 -11 -2 -11 -11 0
-11 -3 -1 -15 10 -12 10 -15 0 -15 -10 0 -10 -3 0 -15 10 -12 10 -15 0 -15
-10 0 -10 -3 0 -15 10 -12 10 -15 0 -15 -10 0 -10 -3 0 -15 9 -11 9 -15 1 -15
-8 0 -9 -5 -2 -18 5 -10 6 -24 1 -32 -5 -8 -5 -21 0 -30 6 -11 5 -21 -2 -28
-9 -9 -9 -12 -1 -12 8 0 9 -9 3 -29 -5 -19 -4 -33 3 -40 8 -8 7 -11 -2 -11
-10 0 -11 -3 -2 -13 6 -8 9 -16 6 -19 -7 -7 83 -1 95 7 5 3 10 1 10 -6 0 -8 4
-8 15 1 12 10 15 10 15 0 0 -10 3 -10 15 0 12 10 15 10 15 0 0 -10 3 -10 15 0
12 10 15 10 15 0 0 -10 3 -10 14 -1 11 9 15 9 18 -1 4 -10 8 -10 21 1 12 9 17
10 17 2 0 -9 5 -9 21 0 15 8 19 8 15 0 -5 -8 0 -8 18 -1 18 7 26 6 26 -1 0 -8
4 -8 13 -1 8 7 18 7 27 2 8 -5 21 -5 31 1 11 6 20 5 24 -1 4 -6 15 -6 30 0 14
5 25 6 25 2 0 -4 9 -8 20 -8 11 0 20 3 20 6 0 6 36 5 50 0 3 -1 8 -2 11 -2 3
1 6 -15 7 -34 1 -19 4 -39 7 -44 4 -6 1 -10 -5 -10 -8 0 -8 -6 0 -20 8 -14 8
-20 0 -20 -8 0 -8 -6 0 -20 8 -14 8 -20 0 -20 -8 0 -8 -6 0 -20 6 -11 7 -20 2
-20 -5 0 -6 -22 -2 -50 4 -27 4 -50 1 -50 -3 0 -4 -36 -1 -80 3 -44 2 -80 -1
-80 -3 0 -3 -22 1 -50 4 -27 3 -50 -2 -50 -5 0 -4 -9 2 -20 8 -15 8 -20 -1
-20 -7 0 -5 -8 6 -20 14 -16 20 -17 27 -8 6 10 8 10 8 -1 0 -11 3 -11 15 -1
12 10 15 10 15 0 0 -10 3 -10 14 -1 11 9 15 9 18 -1 4 -10 8 -10 21 1 12 9 17
10 17 2 0 -9 5 -9 21 0 15 8 19 8 15 0 -5 -8 0 -8 18 -1 18 7 26 6 26 -1 0 -8
4 -8 13 -1 8 7 18 7 27 2 8 -5 21 -5 31 1 10 5 20 5 23 1 6 -10 36 -9 54 2 7
4 12 2 12 -4 0 -8 6 -7 21 1 15 8 19 8 15 0 -5 -8 0 -8 18 -1 18 7 26 6 26 -1
0 -8 5 -7 15 1 12 10 15 10 15 0 0 -10 3 -10 15 0 12 10 15 10 15 0 0 -10 3
-10 15 0 12 10 15 10 15 0 0 -10 3 -10 14 -1 11 9 15 9 18 -1 4 -10 8 -10 21
1 12 9 17 10 17 2 0 -9 5 -9 21 0 15 8 19 8 15 0 -5 -8 0 -8 18 -1 18 7 26 6
26 -1 0 -8 4 -8 13 -1 8 7 18 7 27 2 8 -5 21 -5 31 1 11 5 20 5 24 0 3 -6 17
-6 35 -1 19 5 30 5 30 -1 0 -6 6 -7 13 -2 16 10 38 10 60 0 9 -4 17 -4 17 0 0
4 23 9 50 11 28 1 61 7 75 12 16 6 25 6 25 0 0 -14 22 -8 38 10 8 8 11 9 7 3
-3 -7 -1 -13 4 -13 6 0 11 4 11 9 0 5 8 8 18 6 9 -1 23 2 29 7 7 6 22 8 33 5
11 -3 20 -1 20 4 0 5 3 8 8 7 8 -1 58 10 82 19 8 4 18 5 23 5 4 -1 7 3 7 9 0
6 6 9 14 6 8 -3 16 -1 18 4 2 6 15 12 30 12 14 1 24 5 21 10 -4 6 20 11 40 8
4 0 7 2 7 7 0 4 20 16 45 27 25 11 45 23 45 26 0 4 11 10 25 13 14 4 25 10 25
15 0 5 14 14 30 21 17 7 30 17 30 22 0 5 5 6 10 3 6 -3 10 -1 10 5 0 6 11 15
25 22 13 6 22 14 20 19 -3 4 3 10 13 13 16 6 155 136 145 136 -2 0 2 6 9 14 7
8 17 11 22 8 5 -3 6 0 3 5 -4 6 2 18 13 28 11 10 34 41 52 69 18 28 36 53 40
54 5 2 6 8 2 13 -3 5 2 12 10 15 9 3 13 10 10 15 -3 5 -1 9 5 9 5 0 12 14 16
30 4 17 11 30 16 30 5 0 9 9 9 19 0 10 7 22 16 25 8 3 12 11 9 16 -4 6 -1 17
5 25 7 8 10 15 6 15 -4 0 0 10 9 23 8 13 12 27 8 30 -3 4 -1 7 5 7 6 0 9 7 6
15 -4 8 -2 15 3 15 5 0 10 6 11 13 2 22 7 42 15 55 5 6 5 17 2 22 -3 6 -2 10
3 10 9 0 29 113 24 133 -1 4 2 7 7 7 4 0 7 11 6 25 -2 14 1 25 7 25 7 0 6 5
-1 14 -9 11 -9 15 1 19 11 4 10 6 0 6 -8 1 -10 6 -5 14 4 6 8 17 9 22 1 6 5
18 9 28 4 9 3 17 -2 17 -5 0 -9 9 -9 20 0 11 3 20 6 20 4 0 7 7 7 15 0 8 -4
15 -9 15 -5 0 -4 10 3 21 8 17 8 23 -1 29 -8 5 -9 13 -4 21 11 19 14 39 5 39
-6 0 -12 44 -14 108 -1 12 -4 22 -9 22 -4 0 -5 7 -2 15 4 9 0 15 -7 15 -11 0
-11 3 1 10 11 7 11 10 2 10 -7 0 -11 4 -8 8 6 10 -14 93 -26 109 -5 7 -7 17
-4 22 4 5 2 12 -4 16 -6 4 -8 10 -5 15 3 5 1 11 -5 15 -5 3 -10 17 -10 31 0
13 -5 24 -11 24 -5 0 -7 5 -4 10 3 6 0 10 -7 10 -11 0 -10 2 0 9 11 6 10 10
-4 15 -9 3 -14 9 -11 12 3 4 -5 23 -18 44 -13 21 -21 41 -17 45 4 3 -1 11 -11
16 -9 6 -15 14 -12 20 4 5 -1 12 -9 15 -9 3 -16 15 -16 25 0 10 -5 19 -12 19
-6 0 -9 3 -5 6 3 3 -3 15 -14 27 -41 46 -49 57 -49 63 0 4 -16 23 -36 42 -19
19 -33 36 -31 39 3 2 -6 15 -20 29 -14 14 -27 23 -30 20 -7 -7 -32 18 -26 27
2 4 0 7 -5 7 -5 0 -23 12 -40 28 -41 36 -56 48 -64 50 -5 1 -17 10 -27 20 -38
34 -49 41 -55 35 -3 -4 -6 -1 -6 6 0 7 -4 10 -9 7 -5 -4 -11 -3 -13 2 -5 12
-99 64 -105 58 -3 -2 -14 4 -26 14 -11 11 -23 17 -28 15 -4 -3 -13 0 -21 7 -7
7 -22 15 -33 17 -11 1 -29 8 -40 14 -11 6 -26 10 -32 9 -7 -2 -13 2 -13 8 0 6
-4 9 -9 6 -5 -4 -22 -1 -38 5 -38 16 -53 20 -85 21 -16 1 -28 5 -28 9 0 4 -9
6 -20 4 -11 -2 -20 0 -20 5 0 4 -9 6 -20 3 -12 -3 -20 0 -20 7 0 10 -3 10 -14
1 -10 -8 -16 -9 -21 -1 -3 6 -11 8 -16 5 -5 -4 -9 -1 -9 4 0 6 -5 11 -11 11
-5 0 -7 -6 -3 -12 6 -10 4 -10 -7 -2 -8 6 -24 10 -36 8 -13 -2 -23 0 -23 5 0
11 -19 9 -39 -3 -8 -5 -16 -4 -21 4 -6 9 -12 9 -29 1 -11 -7 -21 -8 -21 -3 0
4 -21 9 -47 11 -26 1 -50 4 -55 7 -4 3 -8 2 -8 -3 0 -4 -36 -6 -80 -3 -44 3
-80 3 -80 0 0 -3 -36 -3 -80 0 -44 3 -80 3 -80 0 0 -3 -36 -3 -80 0 -44 3 -80
3 -80 0 0 -3 -27 -3 -60 0 -33 3 -60 3 -60 0 0 -3 -27 -3 -60 0 -33 3 -60 3
-60 0 0 -3 -27 -3 -60 0 -33 3 -60 3 -60 -1 0 -4 -13 -4 -30 1 -19 5 -30 5
-30 -1 0 -6 -8 -5 -20 1 -14 8 -20 8 -20 0 0 -8 -6 -8 -20 0 -14 8 -20 8 -20
0 0 -8 -6 -8 -20 0 -11 6 -20 7 -20 3 0 -9 -134 -8 -149 2 -6 3 -11 0 -11 -7
0 -9 -3 -9 -10 2 -5 8 -10 10 -10 5 0 -7 -22 -9 -60 -5 -33 3 -60 2 -60 -2 0
-5 -9 -4 -20 2 -16 9 -18 8 -14 -5z m410 -320 c13 -1 24 2 24 7 0 5 9 4 20 -2
11 -6 20 -7 20 -2 0 5 23 6 50 2 28 -4 50 -2 50 2 0 5 5 6 11 3 13 -9 149 -12
149 -4 0 3 23 3 50 -1 28 -4 50 -3 50 2 0 5 9 4 20 -2 14 -8 20 -8 20 0 0 8 6
8 20 0 14 -8 20 -8 20 0 0 8 6 8 20 0 12 -6 20 -7 20 -1 0 6 11 6 30 1 17 -5
30 -5 30 -1 0 4 27 4 60 1 33 -3 60 -3 60 0 0 3 27 3 60 0 33 -3 60 -3 60 1 0
4 14 4 30 -1 19 -5 30 -5 30 1 0 6 8 5 20 -1 14 -8 20 -8 20 0 0 8 6 8 20 0
14 -8 20 -8 20 0 0 8 6 8 20 0 14 -8 20 -8 20 0 0 8 6 8 20 0 14 -8 20 -8 20
0 0 8 6 8 20 0 13 -7 20 -7 20 -1 0 7 9 7 26 1 14 -6 29 -8 34 -5 5 3 11 1 14
-4 7 -10 25 -9 44 2 6 5 12 4 12 -1 0 -5 6 -9 13 -9 55 -3 87 -8 87 -15 0 -4
3 -7 8 -7 4 1 10 0 15 -1 13 -4 21 -6 60 -14 20 -5 37 -11 37 -15 0 -4 10 -7
22 -8 11 -1 25 -8 29 -15 5 -7 9 -9 9 -4 0 5 6 3 13 -3 8 -6 17 -8 20 -4 4 3
7 1 7 -5 0 -7 9 -12 20 -12 11 0 20 -5 20 -11 0 -5 4 -8 9 -5 5 3 14 -1 21 -9
7 -8 19 -15 26 -15 8 0 14 -4 14 -9 0 -5 9 -12 19 -16 11 -3 34 -19 53 -35 18
-17 41 -32 50 -35 9 -3 20 -15 23 -26 4 -10 9 -19 13 -19 12 -1 82 -68 82 -78
0 -6 9 -14 20 -17 11 -3 20 -12 20 -18 0 -7 8 -20 18 -28 9 -9 24 -26 32 -39
8 -12 22 -32 31 -44 18 -24 33 -58 31 -68 -1 -5 3 -8 9 -8 5 0 8 -4 5 -9 -4
-5 -3 -11 2 -13 4 -1 18 -20 30 -41 12 -21 18 -36 13 -33 -5 3 -4 -5 2 -19 7
-14 17 -25 22 -25 6 0 3 -5 -5 -10 -10 -6 -11 -10 -2 -10 6 0 12 -8 12 -18 0
-10 3 -22 7 -26 4 -4 9 -19 11 -33 2 -15 7 -34 11 -42 4 -9 7 -31 7 -48 -1
-18 3 -33 7 -33 5 0 5 -4 2 -10 -3 -5 -1 -10 6 -10 8 0 8 -4 -1 -15 -9 -11 -9
-15 -1 -15 9 0 9 -5 0 -21 -8 -16 -8 -20 1 -14 9 6 9 2 1 -14 -9 -16 -9 -21 1
-21 9 0 9 -3 0 -12 -14 -14 -16 -32 -2 -23 7 4 7 -3 0 -19 -7 -19 -6 -26 3
-26 7 0 8 -3 2 -8 -13 -9 -15 -42 -3 -42 6 0 5 -6 -2 -15 -7 -8 -10 -22 -6
-30 3 -8 1 -15 -4 -15 -5 0 -7 -7 -4 -15 4 -8 1 -21 -5 -29 -6 -7 -9 -21 -5
-30 3 -9 2 -16 -2 -16 -5 0 -10 -12 -11 -26 0 -15 -5 -29 -10 -33 -4 -3 -9
-15 -11 -26 -5 -39 -45 -129 -71 -159 -9 -10 -15 -21 -14 -25 4 -11 -71 -120
-79 -115 -5 3 -8 -1 -8 -9 0 -7 -13 -29 -30 -47 -16 -18 -30 -38 -30 -43 0 -6
-3 -8 -6 -5 -3 4 -22 -11 -41 -33 -20 -22 -38 -38 -40 -36 -2 2 -20 -12 -41
-31 -36 -35 -140 -106 -154 -107 -4 0 -16 -8 -28 -17 -11 -10 -20 -15 -20 -12
0 4 -7 1 -15 -6 -8 -7 -15 -9 -15 -6 0 4 -10 0 -22 -8 -12 -9 -31 -16 -41 -16
-10 0 -16 -4 -13 -9 4 -5 -4 -7 -16 -3 -16 4 -19 2 -13 -8 6 -10 4 -12 -10 -7
-9 4 -24 2 -31 -4 -8 -6 -14 -9 -14 -5 0 3 -16 0 -35 -9 -20 -8 -33 -10 -29
-4 4 7 -2 6 -16 -1 -12 -6 -31 -10 -41 -7 -10 3 -19 1 -19 -5 0 -5 -6 -8 -12
-5 -7 2 -25 0 -40 -4 -17 -5 -28 -4 -28 2 0 6 -5 7 -12 3 -17 -11 -78 -12 -84
-2 -3 5 -14 3 -25 -2 -13 -8 -19 -7 -19 0 0 7 -5 8 -12 3 -17 -11 -428 -11
-428 0 0 4 -5 5 -11 2 -5 -4 -21 -4 -34 -1 -20 5 -24 11 -21 36 2 17 -1 30 -7
30 -5 0 -4 7 3 15 9 11 9 15 1 15 -9 0 -9 5 0 21 8 16 8 20 -1 14 -9 -6 -9 -2
-1 14 9 16 9 21 -1 21 -9 0 -9 3 0 12 14 14 16 32 2 23 -7 -4 -7 3 0 19 7 19
6 26 -3 26 -8 0 -8 3 -2 8 6 4 10 17 9 29 -1 12 3 20 7 17 5 -3 9 0 9 7 0 8 4
8 15 -1 9 -8 15 -8 15 -2 0 7 10 8 30 2 17 -5 30 -6 30 -2 0 4 45 5 100 2 55
-3 100 -2 100 2 0 4 6 5 14 2 7 -3 16 2 19 10 4 9 2 16 -4 16 -6 0 -7 5 -3 12
11 17 11 58 1 58 -4 0 -2 10 4 23 15 26 14 27 -1 37 -8 5 -9 13 -4 21 11 18
12 32 3 44 -4 6 -4 17 1 25 12 19 13 33 1 26 -5 -3 -12 1 -15 10 -5 14 -9 14
-23 3 -9 -8 -14 -9 -10 -2 5 8 -10 12 -48 15 -30 1 -55 0 -55 -3 0 -3 -22 -3
-50 1 -27 4 -50 3 -50 -2 0 -5 -9 -4 -20 2 -13 7 -20 7 -20 1 0 -7 -9 -7 -22
-2 -16 6 -23 17 -23 34 -1 14 -4 29 -7 33 -4 3 -3 17 2 30 7 17 6 24 -3 24 -7
0 -8 3 -2 8 13 9 15 42 3 42 -6 0 -5 6 2 15 10 12 10 15 -1 15 -9 0 -10 3 -4
8 13 9 16 42 4 42 -5 0 -4 11 1 25 5 13 6 26 2 29 -9 5 -7 74 2 83 3 4 1 12
-5 20 -6 7 -7 13 -2 13 5 0 10 7 10 15 0 8 -4 15 -9 15 -5 0 -4 10 3 21 8 16
8 20 -1 14 -9 -6 -9 -2 -1 14 9 16 9 21 -1 21 -9 0 -9 3 0 12 14 14 16 32 2
23 -7 -4 -7 3 0 19 7 19 6 26 -3 26 -7 0 -8 3 -2 8 13 9 15 42 3 42 -6 0 -5 6
2 15 10 12 10 15 -1 15 -9 0 -10 3 -4 8 13 9 15 42 3 42 -6 0 -5 6 2 15 10 12
10 15 -1 15 -9 0 -10 3 -4 8 13 9 15 42 3 42 -6 0 -5 6 2 15 10 12 10 15 -1
15 -9 0 -10 3 -4 8 13 9 16 42 4 42 -5 0 -4 11 1 25 5 13 6 26 2 29 -9 5 -7
74 2 83 3 4 1 12 -5 20 -6 7 -7 13 -2 13 5 0 10 7 10 15 0 8 -4 15 -9 15 -5 0
-4 10 3 21 8 16 8 20 -1 14 -9 -6 -9 -2 -1 14 9 16 9 21 -1 21 -9 0 -9 3 0 12
14 14 16 32 2 23 -7 -4 -7 3 0 19 6 18 6 26 -1 26 -6 0 -8 4 -5 9 3 5 -14 11
-39 13 -25 2 -45 0 -45 -4 0 -4 -13 -3 -30 2 -19 5 -30 5 -30 -1 0 -6 -8 -5
-20 1 -14 8 -20 8 -20 0 0 -8 -6 -8 -20 0 -14 8 -20 8 -20 0 0 -8 -6 -8 -20 0
-12 6 -20 7 -20 1 0 -5 -9 -7 -21 -4 -20 6 -21 3 -18 -46 2 -28 1 -51 -2 -51
-3 0 -3 -22 1 -50 4 -27 3 -50 -2 -50 -5 0 -4 -9 2 -20 8 -14 8 -20 0 -20 -8
0 -8 -6 0 -20 8 -14 8 -20 0 -20 -8 0 -8 -6 0 -20 6 -12 7 -20 1 -20 -6 0 -6
-11 -1 -30 5 -16 5 -30 1 -30 -4 0 -4 -27 -1 -60 3 -33 3 -60 0 -60 -3 0 -3
-27 0 -60 3 -33 3 -60 -1 -60 -4 0 -4 -13 1 -30 5 -19 5 -30 -1 -30 -6 0 -5
-8 1 -20 8 -14 8 -20 0 -20 -8 0 -8 -6 0 -20 8 -14 8 -20 0 -20 -8 0 -8 -6 0
-20 6 -11 7 -20 2 -20 -5 0 -6 -22 -2 -50 4 -27 4 -50 1 -50 -3 0 -4 -36 -1
-80 3 -44 2 -80 -1 -80 -3 0 -3 -22 1 -50 4 -27 3 -50 -2 -50 -5 0 -4 -9 2
-20 8 -14 8 -20 0 -20 -8 0 -8 -6 0 -20 8 -14 8 -20 0 -20 -6 0 -9 -4 -6 -9 3
-5 -2 -12 -12 -16 -24 -11 -52 -13 -52 -4 0 10 -34 6 -42 -6 -5 -6 -8 -5 -8 2
0 9 -7 10 -25 3 -13 -5 -27 -5 -30 -1 -3 5 -21 5 -40 1 -20 -5 -33 -4 -29 1 8
13 -10 11 -24 -3 -9 -9 -12 -9 -12 1 0 7 -5 9 -11 6 -17 -11 -50 30 -36 44 8
8 8 11 -1 11 -7 0 -9 7 -5 17 6 15 8 62 3 81 -5 18 -2 73 4 79 3 3 1 12 -5 20
-6 7 -7 13 -2 13 5 0 10 7 10 15 0 8 -4 15 -9 15 -5 0 -4 10 3 21 8 16 8 20
-1 14 -9 -6 -9 -2 -1 14 9 16 9 21 -1 21 -9 0 -9 3 0 12 14 14 16 32 2 23 -7
-4 -7 3 0 19 7 19 6 26 -3 26 -7 0 -8 3 -2 8 13 9 15 42 3 42 -6 0 -5 6 2 15
10 12 10 15 -1 15 -9 0 -10 3 -4 8 13 9 16 42 4 42 -5 0 -4 11 1 25 5 13 6 26
2 29 -9 5 -7 74 2 83 3 4 1 12 -5 20 -6 7 -7 13 -2 13 5 0 10 7 10 15 0 8 -4
15 -9 15 -5 0 -4 10 3 21 8 16 8 20 -1 14 -9 -6 -9 -2 -1 14 9 16 9 21 -1 21
-9 0 -9 3 0 12 14 14 16 32 2 23 -7 -4 -7 3 0 19 7 19 6 26 -3 26 -7 0 -8 3
-2 8 13 9 15 42 3 42 -6 0 -5 6 2 15 10 12 10 15 -1 15 -9 0 -10 3 -4 8 13 9
16 42 4 42 -5 0 -4 11 1 25 5 13 6 26 2 29 -9 5 -7 74 2 83 3 4 1 12 -5 20 -6
7 -7 13 -2 13 5 0 10 7 10 15 0 8 -4 15 -9 15 -5 0 -4 10 3 21 8 16 8 20 -1
14 -9 -6 -9 -2 -1 14 9 16 9 21 -1 21 -9 0 -9 3 0 12 13 13 17 32 4 24 -8 -5
-7 62 2 71 3 4 1 12 -5 20 -6 7 -7 13 -2 13 5 0 10 7 10 15 0 8 -4 15 -9 15
-5 0 -4 10 3 21 8 16 8 20 -1 14 -9 -6 -9 -3 -1 12 6 11 7 24 3 28 -4 5 -1 5
6 1 7 -4 12 -2 12 6 0 9 3 9 10 -2 8 -12 10 -12 10 -1 0 8 7 11 20 8 11 -3 20
-1 20 5 0 5 5 6 11 3 5 -4 21 -8 35 -10z"/>
<path d="M3310 4352 c0 -4 -41 -6 -91 -6 -82 1 -92 -1 -96 -17 -3 -11 -9 -19
-13 -19 -5 0 -5 -13 0 -30 5 -17 5 -30 0 -30 -5 0 -5 -13 0 -30 5 -19 5 -30
-1 -30 -6 0 -5 -8 1 -20 6 -12 7 -20 1 -20 -6 0 -6 -11 -1 -30 5 -17 5 -30 0
-30 -5 0 -5 -13 0 -30 5 -19 5 -30 -1 -30 -6 0 -5 -8 1 -20 6 -12 7 -20 1 -20
-6 0 -6 -11 -1 -30 5 -17 5 -30 0 -30 -5 0 -5 -13 0 -30 5 -19 5 -30 -1 -30
-6 0 -5 -8 1 -20 6 -12 7 -20 1 -20 -6 0 -6 -11 -1 -30 5 -17 5 -30 0 -30 -5
0 -5 -13 0 -30 5 -19 5 -30 -1 -30 -6 0 -5 -8 1 -20 6 -12 7 -20 1 -20 -6 0
-6 -11 -1 -30 5 -17 5 -30 0 -30 -5 0 -5 -13 0 -30 5 -19 5 -30 -1 -30 -6 0
-5 -8 1 -20 6 -12 7 -20 1 -20 -6 0 -6 -11 -1 -30 5 -17 5 -30 0 -30 -5 0 -5
-13 0 -30 5 -19 5 -30 -1 -30 -6 0 -5 -8 1 -20 6 -12 7 -20 1 -20 -6 0 -6 -11
-1 -30 5 -17 5 -30 0 -30 -5 0 -5 -13 0 -30 5 -16 5 -30 2 -30 -4 0 -5 -30 -2
-67 4 -38 3 -69 -2 -71 -4 -2 -3 -12 2 -23 7 -12 7 -19 1 -19 -6 0 -6 -11 -1
-30 5 -16 5 -30 2 -30 -4 0 -5 -31 -2 -70 3 -38 3 -70 0 -70 -3 0 -4 -16 -2
-36 4 -29 8 -35 23 -31 11 3 19 1 19 -4 0 -6 8 -5 20 1 14 8 20 8 20 0 0 -8 6
-8 20 0 14 8 20 8 20 0 0 -8 6 -8 20 0 11 6 20 7 20 3 0 -4 13 -8 30 -9 16 -1
27 3 24 8 -8 12 19 5 28 -7 5 -6 8 -4 8 5 0 12 2 12 9 1 7 -10 13 -11 30 -2
13 8 21 8 21 2 0 -7 9 -7 25 -1 16 6 25 6 25 -1 0 -6 7 -6 20 1 14 8 20 8 20
0 0 -8 6 -8 20 0 14 8 20 8 20 0 0 -8 6 -8 20 0 11 6 20 7 20 3 0 -4 13 -8 30
-9 16 -1 27 2 25 6 -2 4 2 7 10 7 8 0 15 -5 15 -11 0 -6 5 -4 10 4 5 8 10 10
10 3 0 -12 17 -12 38 0 7 5 12 3 12 -3 0 -6 5 -8 10 -5 6 4 8 11 5 16 -4 5 -2
9 4 9 5 0 8 11 6 25 -1 14 1 25 4 25 4 0 4 27 1 60 -3 33 -3 60 1 60 4 0 4 14
-1 30 -6 21 -5 30 3 30 8 0 7 3 -2 9 -11 7 -11 9 0 14 9 3 6 8 -11 15 -14 5
-26 6 -28 1 -2 -5 -12 -4 -23 1 -12 7 -19 7 -19 1 0 -6 -11 -6 -30 -1 -16 5
-30 5 -30 1 0 -4 -27 -4 -60 -1 -33 3 -60 2 -60 -2 0 -4 -6 -6 -12 -4 -7 3
-25 7 -39 10 -24 5 -27 12 -31 51 -2 25 -1 45 2 45 3 0 3 27 0 60 -3 33 -3 60
1 60 4 0 4 14 -1 30 -5 17 -5 30 0 30 5 0 5 13 0 30 -5 17 -6 30 -2 30 4 0 5
45 2 100 -3 55 -2 100 2 100 4 0 3 14 -2 30 -5 17 -5 30 0 30 5 0 5 13 0 30
-5 17 -6 30 -2 30 4 0 5 45 2 100 -3 55 -2 100 2 100 4 0 3 14 -2 30 -5 17 -5
30 0 30 5 0 5 13 0 30 -5 17 -6 30 -2 30 4 0 5 45 2 100 -3 55 -2 100 2 100 4
0 3 14 -2 30 -6 20 -5 30 2 30 7 0 7 4 -1 13 -6 8 -7 17 -3 22 4 4 0 5 -8 3
-8 -3 -23 -1 -32 4 -11 5 -18 5 -18 -1 0 -6 -11 -6 -30 -1 -16 5 -30 6 -30 2z"/>
<path d="M1810 2469 c0 -3 -11 -5 -24 -4 -24 3 -43 -19 -26 -30 5 -3 5 -18 0
-35 -6 -20 -5 -30 2 -30 6 0 6 -6 -2 -15 -10 -12 -10 -15 0 -15 10 0 10 -3 0
-15 -10 -12 -10 -15 0 -15 10 0 10 -3 0 -15 -10 -12 -10 -15 0 -15 10 0 10 -3
0 -15 -9 -11 -9 -15 -1 -15 7 0 9 -5 6 -11 -13 -20 -12 -61 1 -66 8 -3 12 -9
9 -14 -3 -4 5 -6 17 -3 46 10 67 11 79 3 8 -4 19 -3 26 3 9 7 13 7 13 -1 0 -8
5 -9 19 -1 14 7 22 7 26 0 5 -8 11 -7 21 1 8 6 14 7 14 2 0 -15 48 -3 54 14 4
8 2 11 -5 7 -8 -4 -7 0 0 15 8 13 8 21 2 21 -7 0 -7 9 -1 25 5 13 6 26 2 29
-9 5 -7 74 2 83 3 4 1 12 -5 20 -9 10 -8 13 2 13 10 0 10 3 2 11 -8 8 -8 20
-3 35 6 16 6 24 -1 24 -6 0 -8 3 -6 8 3 4 -15 7 -39 7 -24 0 -44 -2 -44 -5 0
-3 -31 -3 -70 0 -38 3 -70 2 -70 -1z"/>
<path d="M3583 2002 c-12 -2 -24 -10 -27 -18 -4 -10 -2 -13 7 -8 8 5 7 2 -2
-9 -12 -16 -9 -19 15 -16 4 0 11 -5 16 -13 7 -9 11 -10 14 -2 3 7 14 10 24 7
17 -4 20 0 20 25 0 17 -4 34 -10 37 -5 3 -10 1 -10 -6 0 -7 -4 -8 -12 -2 -7 5
-23 7 -35 5z"/>
<path d="M1810 1991 c0 -5 -9 -7 -21 -4 -20 6 -20 3 -17 -126 2 -72 0 -131 -3
-131 -6 0 -2 -41 7 -69 3 -10 7 -11 18 -2 10 9 15 9 18 1 2 -6 11 -8 20 -5 12
5 16 19 15 61 -1 30 1 54 5 54 4 0 3 14 -2 30 -5 17 -5 30 0 30 5 0 5 13 0 30
-5 19 -5 30 1 30 6 0 5 8 -1 20 -6 11 -7 20 -2 20 16 0 1 46 -19 58 -10 7 -19
8 -19 3z"/>
<path d="M1936 1993 c-2 -3 -12 -6 -22 -7 -18 -3 -30 -36 -13 -36 6 0 8 -4 4
-9 -3 -6 11 -11 31 -13 28 -2 39 -9 45 -26 5 -13 5 -21 0 -18 -4 3 -8 -8 -7
-24 1 -17 5 -30 9 -30 4 0 3 -9 -3 -20 -8 -14 -8 -20 0 -20 7 0 8 -6 1 -17 -5
-10 -5 -26 0 -40 5 -14 5 -23 -1 -23 -17 0 2 -31 24 -39 26 -10 50 12 43 39
-3 11 0 20 6 20 7 0 5 5 -3 10 -11 7 -11 10 -2 10 10 0 10 5 2 20 -6 11 -7 20
-3 20 4 0 8 23 8 50 0 28 -3 50 -8 50 -4 0 -2 9 5 20 9 13 24 20 45 20 30 0
33 3 33 29 0 17 -4 33 -10 36 -5 3 -10 2 -10 -3 0 -5 -17 -6 -40 -2 -22 4 -40
4 -40 0 0 -4 -20 -4 -45 0 -25 4 -47 5 -49 3z"/>
<path d="M2430 1991 c0 -4 -14 -6 -31 -3 -45 7 -109 -30 -109 -62 0 -9 -4 -16
-9 -16 -5 0 -3 -19 4 -42 7 -24 18 -42 24 -40 6 1 11 -1 11 -6 0 -9 48 -30 80
-34 14 -2 30 -7 36 -13 13 -11 6 -47 -7 -39 -5 3 -9 0 -9 -7 0 -9 -4 -9 -15 1
-8 6 -18 9 -24 6 -5 -4 -12 3 -16 14 -7 22 -20 26 -30 10 -5 -8 -11 -7 -21 1
-10 8 -14 8 -14 0 0 -6 -7 -11 -15 -11 -8 0 -15 -9 -15 -20 0 -11 5 -20 10
-20 6 0 10 -7 10 -15 0 -8 3 -14 8 -13 4 1 22 -6 40 -15 17 -10 32 -13 32 -8
0 11 33 9 41 -3 4 -4 16 -3 28 3 12 7 21 8 21 2 0 -13 60 18 67 35 3 8 9 11
14 8 5 -3 9 4 9 15 0 12 4 21 10 21 5 0 7 6 4 14 -4 10 1 14 14 13 12 0 19 -4
16 -8 -2 -4 1 -11 7 -14 5 -4 8 -13 5 -21 -3 -8 -1 -14 5 -14 6 0 7 -5 3 -12
-4 -7 -3 -8 4 -4 6 4 19 -2 28 -13 9 -10 23 -17 30 -14 8 3 14 0 14 -5 0 -11
45 -10 57 1 3 4 12 2 20 -4 9 -9 13 -8 13 0 0 6 6 11 13 11 16 0 57 42 57 58
0 7 5 12 12 12 6 0 8 3 5 7 -4 3 -1 13 6 21 8 10 8 13 1 9 -7 -4 -15 1 -19 10
-3 10 -2 19 4 21 12 4 -7 52 -21 52 -4 0 -8 7 -8 15 0 8 -6 16 -12 17 -14 1
-30 5 -38 8 -19 7 -41 7 -46 -1 -3 -5 -12 -5 -23 1 -12 6 -22 5 -29 -2 -9 -9
-12 -9 -12 2 0 7 -18 -6 -40 -29 -39 -41 -51 -59 -29 -45 9 5 -4 -29 -16 -44
-8 -9 -44 20 -39 32 7 18 -52 61 -62 45 -5 -8 -9 -8 -14 1 -4 7 -19 13 -34 13
-14 0 -26 3 -26 8 0 5 -7 9 -16 9 -11 0 -14 5 -10 16 3 9 6 18 6 20 0 13 58 1
69 -14 11 -16 18 -17 47 -8 41 13 47 35 16 60 -24 19 -92 39 -92 27z m320
-147 c0 -8 4 -14 8 -14 5 0 9 -14 10 -31 0 -17 3 -33 5 -36 3 -2 -6 -16 -18
-29 -29 -31 -63 -26 -60 9 1 12 -2 32 -6 45 -5 13 -5 22 1 22 6 0 9 3 8 8 0 4
2 14 6 22 8 20 46 23 46 4z"/>
<path d="M2930 1987 c0 -4 -5 -5 -12 -1 -8 5 -9 0 -6 -14 4 -12 3 -22 -2 -22
-11 0 -7 -33 5 -42 7 -5 7 -8 0 -8 -7 0 -8 -24 -5 -65 3 -36 3 -65 0 -65 -3 0
-3 -24 -1 -52 3 -55 16 -74 38 -56 9 7 13 7 13 0 0 -17 29 -2 41 20 8 16 8 19
-1 13 -9 -6 -9 -3 -1 12 7 14 7 23 -1 31 -8 8 -8 12 -2 12 6 0 11 7 11 15 0 8
-4 15 -9 15 -5 0 -4 10 3 21 8 16 8 20 -1 14 -9 -6 -9 -2 -1 14 9 16 9 21 -1
21 -9 0 -9 3 0 12 14 14 16 32 3 23 -6 -3 -6 6 -1 25 5 18 5 30 0 30 -6 0 -5
11 0 26 7 16 7 23 0 19 -6 -3 -10 0 -10 7 0 9 -3 9 -10 -2 -5 -8 -10 -10 -10
-5 0 6 -9 11 -20 11 -11 0 -20 -4 -20 -9z"/>
<path d="M3379 1983 c-5 -12 -3 -29 4 -34 12 -9 -22 -41 -35 -33 -7 4 -8 2 -4
-4 4 -6 2 -20 -4 -31 -8 -17 -6 -20 13 -23 12 -2 22 -7 22 -13 0 -5 3 -15 7
-21 4 -6 4 -14 0 -18 -10 -11 -9 -30 2 -38 6 -4 6 -11 0 -20 -24 -31 24 -110
52 -87 8 7 13 6 16 -2 3 -9 9 -9 25 -1 16 9 23 9 26 -1 3 -6 6 3 6 20 1 23 -5
37 -19 45 -12 8 -20 24 -20 40 0 14 -6 29 -12 31 -10 4 -10 6 0 6 7 1 10 6 7
11 -3 6 -1 10 5 10 6 0 8 5 5 11 -4 6 2 13 14 16 11 3 18 9 15 14 -3 5 -1 9 4
9 18 0 0 38 -20 43 -15 4 -19 11 -15 26 3 12 1 24 -4 27 -5 3 -7 10 -3 15 3 6
-12 9 -40 8 -25 -2 -47 -4 -47 -6z"/>
<path d="M3250 1910 c0 -4 -8 -7 -17 -6 -16 1 -18 -10 -21 -79 -3 -87 -14
-110 -42 -95 -17 9 -34 60 -20 60 4 0 4 18 0 40 -5 27 -4 40 4 40 6 0 4 5 -4
10 -13 9 -13 10 0 10 13 0 13 1 0 10 -24 16 -76 12 -91 -7 -12 -15 -12 -16 1
-8 12 7 13 6 3 -6 -7 -9 -8 -20 -3 -29 5 -8 6 -19 2 -25 -10 -16 -11 -34 -1
-41 5 -3 5 -13 -1 -25 -8 -14 -7 -19 2 -19 8 0 9 -3 1 -11 -13 -13 6 -59 25
-59 6 0 12 -4 12 -8 0 -5 14 -7 30 -4 17 2 30 8 30 13 0 5 3 8 8 7 4 0 14 2
23 6 8 4 29 0 45 -9 17 -9 30 -11 32 -5 2 6 8 8 13 4 5 -3 9 6 9 20 0 14 3 26
8 26 4 0 7 14 7 30 0 17 -4 30 -8 30 -4 0 -3 10 4 21 8 17 8 23 -1 29 -8 5 -9
13 -4 21 12 20 14 39 3 39 -6 0 -8 4 -5 9 3 5 -5 11 -19 13 -14 3 -25 2 -25
-2z"/>
<path d="M3781 1903 c-5 -10 -12 -17 -15 -15 -19 8 -36 -1 -42 -23 -3 -14 -11
-25 -16 -25 -6 0 -8 -7 -5 -15 4 -8 2 -17 -4 -20 -5 -4 -7 -10 -4 -15 3 -4 7
-25 10 -46 2 -22 9 -40 14 -42 5 -2 19 -12 31 -22 13 -11 27 -17 31 -14 5 3 9
1 9 -4 0 -7 47 -9 95 -3 6 0 27 17 46 36 27 26 35 42 34 65 -1 16 3 30 9 30 6
0 4 5 -4 10 -8 5 -12 10 -8 10 11 0 -13 60 -24 60 -5 0 -6 5 -2 12 4 6 3 8 -4
4 -6 -3 -16 0 -24 7 -7 7 -33 14 -58 16 -25 2 -48 5 -52 7 -4 3 -11 -4 -17
-13z m84 -65 c8 -13 12 -24 8 -25 -5 -2 -7 -23 -6 -48 1 -33 -3 -45 -14 -45
-8 0 -11 -4 -8 -10 3 -5 1 -10 -4 -10 -6 0 -11 4 -11 9 0 5 -9 12 -19 16 -12
4 -20 17 -23 40 -2 20 0 31 6 28 5 -4 7 1 3 9 -7 19 19 58 38 58 8 0 21 -10
30 -22z"/>
<path d="M4197 1914 c-3 -3 -45 -7 -94 -8 l-87 -1 -3 -122 -4 -121 31 2 c16 1
30 -1 30 -6 0 -4 10 -3 23 3 22 10 23 14 16 77 -6 51 -4 72 7 90 17 26 21 27
40 7 9 -8 13 -15 11 -15 -3 0 -1 -16 3 -35 4 -19 4 -35 0 -35 -5 0 -5 -13 0
-30 5 -17 5 -30 0 -30 -5 0 -7 -7 -4 -15 4 -8 10 -12 15 -9 5 3 9 0 9 -6 0 -7
6 -8 19 0 14 7 21 6 24 -3 4 -9 7 -9 18 0 17 17 21 46 7 54 -6 4 -7 12 -2 20
11 19 13 49 2 49 -5 0 -4 9 2 20 6 11 7 20 2 20 -4 0 -9 9 -10 20 -1 11 -2 26
-3 33 -3 15 -29 42 -29 30 0 -4 -4 -2 -8 5 -5 7 -11 9 -15 6z"/>
<path d="M3570 1888 c-12 -10 -17 -18 -11 -18 7 0 9 -5 4 -12 -11 -19 -12 -38
-2 -38 6 0 5 -9 -2 -21 -8 -16 -8 -20 1 -14 9 6 9 2 1 -14 -9 -16 -9 -21 1
-21 9 0 9 -3 0 -12 -14 -14 -16 -32 -4 -24 5 3 6 -9 4 -26 -4 -26 -2 -30 12
-25 9 4 16 2 16 -2 0 -8 21 -8 40 -1 3 1 9 2 14 1 5 -1 6 10 4 24 -3 14 -2 25
3 25 4 0 4 14 -1 30 -5 19 -5 30 1 30 6 0 5 8 -1 20 -8 14 -8 20 0 20 8 0 8 6
0 20 -8 15 -8 20 2 20 9 0 9 3 -2 10 -9 6 -11 10 -3 10 7 0 10 7 7 15 -4 8
-10 12 -15 9 -5 -3 -9 -1 -9 3 0 15 -37 9 -60 -9z"/>
<path d="M4339 1891 c-20 -12 -26 -24 -25 -49 1 -17 -3 -32 -8 -32 -6 0 1 -10
14 -22 14 -13 26 -21 29 -20 2 2 8 -2 12 -10 6 -9 9 -9 9 -1 0 9 8 8 28 -2 17
-10 28 -11 31 -4 2 6 11 2 20 -8 17 -17 17 -19 -2 -35 -15 -14 -23 -15 -34 -7
-7 6 -13 8 -13 3 0 -5 -4 -3 -9 4 -13 21 -79 33 -85 16 -3 -7 1 -20 9 -28 8
-7 11 -17 7 -21 -4 -5 -2 -5 5 -1 6 3 15 1 18 -5 4 -5 13 -8 21 -5 8 3 14 1
14 -4 0 -6 9 -6 25 0 16 6 25 6 25 -1 0 -6 7 -6 20 1 15 8 20 8 20 -1 0 -7 8
-5 20 6 11 10 20 15 20 11 0 -4 6 -1 14 6 8 7 12 16 9 21 -2 4 1 7 7 7 5 0 9
14 8 30 -1 17 -6 30 -11 30 -4 0 -6 4 -3 9 6 9 -30 24 -51 22 -7 -1 -13 4 -13
11 0 9 -3 9 -10 -2 -5 -8 -10 -10 -10 -3 0 6 -9 9 -20 6 -25 -7 -49 12 -47 38
1 17 8 19 44 17 24 -1 43 -6 43 -10 0 -5 5 -6 10 -3 6 3 10 0 10 -7 0 -9 3 -9
10 2 8 13 10 13 10 1 0 -13 2 -13 13 -2 10 11 10 14 0 18 -7 3 -13 11 -13 18
0 16 -31 25 -87 25 -28 0 -43 -4 -43 -12 0 -9 -3 -10 -8 -2 -5 8 -15 6 -33 -5z"/>
</g>
</svg>
